<?xml version="1.0" encoding="UTF-8"?>
<svg id="_レイヤー_2のコピー" data-name="レイヤー_2のコピー" xmlns="http://www.w3.org/2000/svg" viewBox="0 0 1100.95 431.44">
  <defs>
    <style>
      .cls-1 {
        fill: #ff7bac;
      }
    </style>
  </defs>
  <path class="cls-1" d="M1080.74,241.59c-.87-.93-1.77-1.83-2.69-2.7-3.94-3.72-8.21-6.95-12.73-9.7,1.62-2.89,3.13-5.84,4.5-8.86,8.58-18.97,11.4-39.14,8.39-59.97-2.71-18.8-10.74-36.56-23.21-51.34-11.5-13.63-26.41-23.84-43.13-29.52-7.8-2.65-19.9-6.17-34.83-6.17-.78,0-1.57.01-2.35.03-12.25-9.42-26.81-15.91-42.64-18.94-6.37-1.22-12.8-1.83-19.12-1.83-9.7,0-19.28,1.44-28.48,4.28-17.65,5.45-32.95,14.76-45.45,27.69-12.86,13.29-18.88,27.43-22.12,35.03-1.03,2.43-1.92,4.91-2.64,7.45-.66,2.31-1.23,4.6-1.76,6.88-12.91-12.61-29.06-20.59-46.94-23.14-.94-.13-1.89-.25-2.84-.34l-90.87-8.86c-.14-.01-.28-.03-.42-.04-2.54-.23-5.12-.35-7.66-.35-18.6,0-36.74,6.34-51.17,17.86-5.85,4.63-10.97,9.96-15.29,15.83-10.44-5.36-21.83-8.43-33.79-9-1.02-.05-2.03-.07-3.05-.07h-8.68s-.06-.06-.09-.09c-.89-.89-1.8-1.75-2.74-2.59-16.09-14.3-35.51-21.85-56.18-21.85s-41.93,8.2-57.75,23.09c-.03.03-.06.05-.08.08-.48.45-.95.91-1.42,1.37h-31.84c-1.02,0-2.03.02-3.05.07-16.9.81-33.01,6.72-46.36,16.86l-26.81-13.99c-.69-.36-1.39-.71-2.09-1.04-11.31-5.38-23.29-8.11-35.62-8.11-4.28,0-8.52.35-12.72,1.02-11.5-9.42-25.42-15.53-40.73-17.62-.12-.02-.24-.03-.36-.05-3.71-.49-7.46-.73-11.14-.73-16.72,0-33.03,5.11-47.17,14.78-1.08.74-2.13,1.51-3.16,2.31-6.19,4.81-11.59,10.37-16.11,16.52-13.86,3.57-26.69,10.81-37.35,21.26-3.25,3.13-6.2,6.52-8.87,10.1-7.55-2.16-15.51-3.35-23.75-3.35C38.75,163.84,0,202.59,0,250.22s38.75,86.38,86.38,86.38c.9,0,1.79-.04,2.68-.07,4.21,16.63,13.27,31.11,26.45,41.95,15.2,12.92,33.67,19.74,53.53,19.74.86,0,1.73-.02,2.61-.04,12.53,10.96,26.69,19.31,42.21,24.86,13.88,4.96,28.59,7.47,43.71,7.47,3.58,0,7.23-.14,10.89-.42,21.08-.91,41.15-7.79,58.59-20.05,1.49.14,2.98.25,4.48.32.04,0,.09,0,.13,0,1.25.05,2.51.08,3.75.08,11.79,0,23.02-2.41,33.31-7.08,2.79,2.26,5.69,4.41,8.73,6.41,18.18,12.08,37.87,19.15,58.55,21.03,4.24.43,8.51.64,12.72.64,17.04,0,33.66-3.48,49.41-10.36,9.46-4.02,18.24-8.98,26.3-14.81,11.15,5.42,23.29,8.25,35.53,8.25,3.78,0,7.57-.27,11.36-.8,13.43,10.65,29.99,16.78,48.02,17.52h0c1.22.05,2.47.08,3.69.08,22.25,0,42.79-8.48,58.07-23.92l5.19-5.02c8.7,6.15,18.43,10.83,28.96,13.89,1.04.3,2.09.58,3.15.83,15.47,3.65,31.26,5.5,46.91,5.5,13.68,0,27.47-1.42,40.97-4.21.24-.05.48-.1.71-.15,16.92-3.7,31.54-11.99,42.61-23.69,3.73,2.36,7.46,4.76,11.16,7.22.39.26.78.51,1.18.76,11.69,7.39,25.21,11.29,39.08,11.29,4.53,0,9.14-.42,13.71-1.25.79-.14,1.57-.32,2.35-.49,7.43,2.46,15.29,3.75,23.16,3.75,5.15,0,10.34-.54,15.41-1.61.24-.05.48-.1.72-.15,6.13-1.36,12.03-3.52,17.56-6.37,9.42,3.21,19.39,4.85,29.7,4.85,22.45,0,43.31-7.8,60.34-22.56,1.05-.91,2.07-1.86,3.06-2.83,21.23-20.97,32.87-47.8,33.66-77.6,0-.24.01-.48.02-.73l.23-14.72c.51-19.49-6.63-38.1-20.18-52.52ZM50,250.22c0-20.06,16.32-36.38,36.38-36.38,2.51,0,4.97.26,7.34.74-.01.62-.05,1.23-.05,1.85,0,15.78,4.41,30.93,12.65,44.09-.49.72-.98,1.45-1.48,2.17-5.89,7.19-10.39,15.1-13.49,23.56-1.63.22-3.29.35-4.98.35-20.06,0-36.38-16.32-36.38-36.38Z"/>
</svg>