<?xml version="1.0" encoding="UTF-8"?>
<svg id="_レイヤー_2" data-name="レイヤー_2" xmlns="http://www.w3.org/2000/svg" viewBox="0 0 1100.95 431.44">
  <defs>
    <style>
      .cls-1 {
        fill: #fff;
      }
    </style>
  </defs>
  <g>
    <path class="cls-1" d="M204.51,182.36c.68-5,3.18-9.31,7.27-12.49,4.32-2.95,8.63-4.09,13.86-3.41,5,.68,9.31,3.18,12.27,7.5s4.09,9.09,3.41,14.08c-.45,3.63-1.14,6.81-2.27,9.31h21.13c5.45-.23,9.99,1.82,14.08,5.68,3.86,3.63,5.91,8.4,5.91,13.4,0,5.45-2.04,10-5.91,13.86-4.09,4.09-8.63,5.91-14.08,5.68h-31.8c-5,15.45-10.9,30.21-18.4,44.98-9.77,8.18-15.22,18.63-16.58,31.35-2.95,5.22-5.91,10-9.31,15.22-3.41,4.09-7.72,6.36-13.18,6.59-5.68.45-10.22-1.14-14.31-4.77-4.09-3.18-5.91-7.95-6.13-13.4-.23-5.68,1.36-10,5-13.86,14.54-20.44,26.12-42.25,35.21-66.1h-13.4c-5.22.23-9.77-1.59-13.63-5.68-3.86-3.86-5.91-8.41-5.91-13.86,0-5,2.04-9.77,5.91-13.4,3.86-3.86,8.41-5.91,13.63-5.68h24.53l2.73-14.99ZM272.21,243.92c-.23-2.04-.23-4.32,0-6.36,5.68-3.18,9.54-7.72,11.36-13.63,5.22-1.82,10.45-1.14,15.22,1.82,4.77,2.95,7.27,7.5,7.72,12.95l4.77,51.57c12.95,6.81,24.99,15.45,35.89,26.35,3.41,3.18,5,7.5,5,12.49-.23,5.22-1.82,9.31-5.22,12.72-3.41,3.18-7.27,4.77-12.49,4.54-5-.23-9.31-1.82-12.49-5.22-3.86-4.54-8.4-8.41-13.18-11.81-2.27,10.45-7.5,18.85-15.67,26.12-8.41,6.81-17.95,10.45-28.39,10.68-10,.91-19.76,0-29.3-3.41-9.54-3.41-17.95-8.86-25.22-16.13-5.68-5.68-9.54-12.27-11.36-19.99-2.04-7.72-1.59-15.45.91-22.94,2.5-7.72,7.04-13.86,13.17-19.08,5.91-5,13.18-7.95,21.13-9.09,13.86-1.59,28.17-.68,42.93,2.73l-4.77-34.3ZM244.04,310.02c-3.86.23-6.59,2.27-7.5,5.91-1.14,3.63,0,6.81,3.18,9.09,6.13,4.09,12.49,5.68,19.31,4.32,4.32-.45,7.72-2.27,11.13-5.22,3.18-2.95,5.22-6.13,6.59-10.45-10.45-3.41-21.13-4.32-32.71-3.63ZM281.29,184.85c4.77-1.82,9.77-1.59,14.54.68l47.02,24.53c4.32,2.04,7.5,5.45,8.86,10.22,1.59,4.77,1.14,9.54-.91,13.86-2.5,4.32-6.13,7.27-10.68,8.86-4.77,1.36-9.31,1.14-13.86-.91l-16.81-8.86c-1.59-5.22-5-8.86-9.54-11.81-5-2.95-10-3.63-15.22-2.5.45-5-.45-10-2.95-14.31-2.73-4.32-6.59-7.72-11.13-9.77,2.04-4.77,5.45-7.95,10.68-10Z"/>
    <path class="cls-1" d="M473.01,189.85v-5c0-5.45,1.82-10,5.91-13.86,3.86-3.63,8.41-5.68,13.86-5.68,5,0,9.54,2.05,13.63,5.68,3.86,3.86,5.68,8.41,5.68,13.86v5h48.39c4.77.23,8.86,2.04,12.72,5.68,3.63,3.41,5.22,7.72,5.22,12.27,0,5-1.59,9.09-5.22,12.72-3.86,3.86-7.95,5.45-12.72,5.68h-48.39v5h48.39c4.77,0,8.86,1.82,12.27,5,3.41,3.41,5.23,7.72,5.23,12.49s-1.82,9.09-5.23,12.49c-3.41,3.18-7.5,5-12.27,5h-48.39v18.85c21.58,6.81,40.89,17.72,57.93,32.48,4.09,2.5,6.81,6.36,7.95,11.13.91,4.77.23,9.31-2.73,13.4-2.5,4.32-6.36,6.82-11.13,7.95-5,1.14-9.31.23-13.4-2.27-12.95-9.31-26.58-16.81-40.89-22.49-7.5,17.26-19.76,29.76-37.03,37.03-9.77,4.32-19.99,5.91-30.67,4.77-10.68-.91-20.44-4.77-29.3-10.68-7.27-4.77-12.95-11.36-16.13-19.54-3.63-8.18-4.54-16.58-2.95-25.22,1.59-8.86,5.45-16.58,11.58-22.94,5.91-6.59,13.18-10.45,21.81-12.49,15.45-3.86,30.44-4.32,45.89-1.14v-8.86h-76.78c-4.77,0-8.63-1.82-12.27-5-3.63-3.41-5.22-7.72-5.22-12.49s1.59-9.09,5.22-12.49c3.63-3.18,7.5-5,12.27-5h76.78v-5h-71.33c-4.77-.23-9.09-1.82-12.72-5.68-3.41-3.63-5.22-7.72-5.22-12.72,0-4.54,1.82-8.86,5.22-12.27,3.63-3.63,7.95-5.45,12.72-5.68h71.33ZM460.74,327.06c3.18-.68,5.68-2.05,7.95-4.54s3.63-5,3.86-8.18c-10.9-2.27-21.13-3.41-30.67-3.41-2.04.23-3.86,1.14-5.45,2.73-1.36,1.59-2.05,3.41-1.82,5.45-.23,2.04.45,4.09,1.82,5.68,1.59,1.59,3.18,2.5,5.22,2.73,6.82.68,13.18.68,19.08-.45Z"/>
    <path class="cls-1" d="M640.19,250.5c-5.23.23-9.31-1.59-12.95-5.45-3.63-3.41-5.45-7.72-5.23-12.72-.23-5.22,1.59-9.31,5.23-13.18,3.63-3.63,7.72-5.22,12.95-5.22h105.17c7.72,0,13.18,3.41,16.58,10.68,2.95,7.5,1.82,14.08-3.63,19.54l-29.99,28.85c5,0,9.54,1.82,12.95,5.68,3.41,3.63,5,8.18,4.77,13.17v22.03c-.23,2.27.23,4.32,1.82,5.91,1.36,1.59,3.18,2.5,5.45,2.73,10.9,1.14,21.13.45,30.89-2.27,7.27-2.27,13.17-.68,18.4,4.54,5.22,5,6.81,11.13,4.54,18.17-1.82,6.81-6.59,11.13-13.86,12.72-19.76,4.09-39.98,3.86-60.2-.91-7.04-2.04-12.95-6.13-17.27-12.04-4.77-5.91-6.59-12.72-6.36-19.99v-10.9c.23-3.18-.91-5.91-3.41-7.95s-5-2.5-8.41-1.59l-61.79,59.74c-3.63,3.86-8.41,5.45-13.86,5.22-5.68-.23-10-2.04-13.4-6.13-3.41-3.86-5-8.63-4.77-13.86.23-5.45,2.27-9.77,6.13-13.4l89.05-83.37h-58.83ZM756.5,174.18c4.77.68,8.86,2.95,12.04,6.36,3.18,3.63,4.77,7.72,5,12.49.23,4.77-1.36,9.09-4.32,12.95-2.95,3.63-7.04,6.13-11.58,7.04-3.86-2.5-8.18-3.63-12.27-3.63h-16.58l-67.69-7.5c-5.22-.68-9.09-3.18-12.04-7.04-2.95-3.86-4.32-8.18-3.63-13.4.68-5,2.95-9.09,7.04-12.27,3.63-2.95,8.18-4.32,13.17-3.86l90.87,8.86Z"/>
  </g>
  <g>
    <path class="cls-1" d="M848.34,295.43c-.7.23-1.05.59-1.05,1.41s.35,1.41,1.05,1.64c20.86,9.49,40.43,20.74,58.94,33.63,1.99,1.52,3.28,3.52,3.63,6.21.35,2.58-.12,4.92-1.64,7.03-1.41,2.23-3.52,3.63-5.98,4.22-2.58.47-4.92.23-7.15-1.17-20.86-13.83-42.65-26.72-65.62-38.44-2.58-1.29-4.69-3.28-6.09-5.63-1.52-2.46-2.23-5.16-2.11-8.2.12-2.81.94-5.51,2.58-7.97,1.52-2.34,3.75-4.1,6.33-5.27,22.38-9.96,43.24-21.68,62.93-35.27,2.23-1.41,4.45-1.87,7.15-1.52,2.58.47,4.69,1.64,6.33,3.75,1.41,2.11,2.11,4.34,1.88,7.03-.35,2.58-1.41,4.8-3.4,6.44-17.69,12.89-36.91,23.44-57.77,32.11Z"/>
    <path class="cls-1" d="M980.99,279.37c5.62-.23,10.31,1.87,14.06,6.09,3.28,4.22,5.04,8.91,5.16,14.3l-.82,23.44c0,2.23,1.05,3.75,2.93,4.57,1.99.94,3.75.59,5.39-.94,5.62-5.74,8.44-12.42,8.55-20.27l.35-13.95c0-2.69,1.06-5.16,3.16-7.15,1.88-1.99,4.34-3.05,7.03-3.05s5.16,1.05,7.27,3.05c1.87,1.99,2.93,4.45,2.81,7.15l-.23,15.23c-.35,13.12-5.27,24.49-14.65,33.75-5.27,4.57-11.37,6.91-18.4,6.91s-13.13-2.34-18.4-6.91c-4.45-4.8-6.56-10.55-6.21-17.11l.94-22.5c.12-.47,0-.7-.35-.7-.23-.35-.47-.35-.82,0-13.01,9.96-21.91,22.85-26.83,38.55-1.17,3.28-2.58,5.98-4.34,8.44-1.29,1.64-3.05,2.81-5.16,3.28-2.23.47-4.45.23-6.33-.7-1.99-.94-3.4-2.34-4.34-4.34-1.06-1.88-1.29-3.98-.82-6.09,7.5-31.17,17.93-61.4,31.05-90.7,1.17-2.46,3.05-4.1,5.62-5.16,2.69-1.05,5.16-.94,7.73.12,2.46,1.05,4.34,2.81,5.51,5.51.94,2.58.94,5.16,0,7.62-4.22,9.37-7.85,17.81-10.43,24.96,3.05-2.11,6.56-3.28,10.55-3.4Z"/>
  </g>
  <path class="cls-1" d="M875.81,144.69c2.28-5.35,4.76-10.98,9.23-15.61,5.17-5.35,11.23-8.84,18.3-11.02,5.58-1.72,11.16-1.79,16.68-.74,6.76,1.29,13.04,4.11,18.1,8.92,2.79,2.65,5.12,5.79,7.61,8.76,1.29,1.53,2.52,3.11,3.67,4.74,1.77,2.51,4.1,3.27,6.96,2.37,2.53-.8,4.99-1.86,7.54-2.55,2.92-.78,5.89-1.42,8.88-1.88,6.38-.97,12.48.42,18.48,2.45,5.89,2,10.83,5.5,14.76,10.16,4.65,5.52,7.73,11.92,8.78,19.2,1.23,8.48.17,16.62-3.36,24.42-2.16,4.78-4.98,9.1-8.49,13.06-4.61,5.19-9.65,9.83-15.39,13.66-4.59,3.06-9.27,6.05-14.18,8.55-12.89,6.57-26.52,10.92-40.98,12.35-2.36.23-4.76.22-7.14.2-5.81-.06-10.07-3.42-14.12-6.98-6.8-5.96-12.86-12.62-17.77-20.22-3.39-5.25-6.62-10.64-9.49-16.19-2.28-4.41-4.04-9.11-5.78-13.78-1.28-3.42-2.39-6.94-3.15-10.51-.76-3.55-1.21-7.19-1.42-10.82-.36-6.16.46-12.22,2.28-18.56Z"/>
</svg>