<?xml version="1.0" encoding="UTF-8"?>
<svg id="_レイヤー_1" data-name="レイヤー_1" xmlns="http://www.w3.org/2000/svg" viewBox="0 0 954.52 439.72">
  <defs>
    <style>
      .cls-1 {
        fill: #fff;
      }
    </style>
  </defs>
  <path class="cls-1" d="M190.32,170.82c.81-5.91,3.76-11.02,8.6-14.78,5.11-3.49,10.21-4.84,16.39-4.03,5.91.81,11.02,3.76,14.51,8.87,3.49,5.11,4.84,10.75,4.03,16.66-.54,4.3-1.34,8.06-2.69,11.02h24.99c6.45-.27,11.83,2.15,16.66,6.72,4.57,4.3,6.99,9.94,6.99,15.86,0,6.45-2.42,11.83-6.99,16.39-4.84,4.84-10.21,6.99-16.66,6.72h-37.62c-5.91,18.28-12.9,35.74-21.77,53.21-11.56,9.67-18.01,22.04-19.62,37.09-3.49,6.18-6.99,11.82-11.02,18.01-4.03,4.84-9.14,7.52-15.59,7.79-6.72.54-12.09-1.34-16.93-5.64-4.84-3.76-6.99-9.41-7.26-15.86-.27-6.72,1.61-11.82,5.91-16.39,17.2-24.19,30.9-49.99,41.65-78.2h-15.86c-6.18.27-11.56-1.88-16.12-6.72-4.57-4.57-6.99-9.94-6.99-16.39,0-5.91,2.42-11.56,6.99-15.86,4.57-4.57,9.94-6.99,16.12-6.72h29.02l3.22-17.74ZM270.41,243.64c-.27-2.42-.27-5.11,0-7.52,6.72-3.76,11.29-9.14,13.44-16.12,6.18-2.15,12.36-1.34,18.01,2.15,5.64,3.49,8.6,8.87,9.14,15.32l5.64,61c15.32,8.06,29.56,18.27,42.46,31.17,4.03,3.76,5.91,8.87,5.91,14.78-.27,6.18-2.15,11.02-6.18,15.05-4.03,3.76-8.6,5.64-14.78,5.38-5.91-.27-11.02-2.15-14.78-6.18-4.57-5.38-9.94-9.95-15.59-13.98-2.69,12.36-8.87,22.31-18.54,30.91-9.94,8.06-21.23,12.36-33.59,12.63-11.82,1.07-23.38,0-34.67-4.03-11.29-4.03-21.23-10.48-29.83-19.08-6.72-6.72-11.29-14.51-13.44-23.65-2.42-9.14-1.88-18.27,1.07-27.14,2.96-9.14,8.33-16.39,15.59-22.57,6.99-5.91,15.59-9.41,24.99-10.75,16.39-1.88,33.32-.81,50.79,3.23l-5.64-40.58ZM237.08,321.85c-4.57.27-7.79,2.69-8.87,6.99-1.34,4.3,0,8.06,3.76,10.75,7.26,4.84,14.78,6.72,22.84,5.11,5.11-.54,9.14-2.69,13.17-6.18,3.76-3.49,6.18-7.26,7.79-12.36-12.36-4.03-24.99-5.11-38.7-4.3ZM281.16,173.77c5.64-2.15,11.56-1.88,17.2.81l55.63,29.02c5.11,2.42,8.87,6.45,10.48,12.09,1.88,5.64,1.34,11.29-1.07,16.39-2.96,5.11-7.26,8.6-12.63,10.48-5.64,1.61-11.02,1.34-16.39-1.07l-19.89-10.48c-1.88-6.18-5.91-10.48-11.29-13.97-5.91-3.49-11.83-4.3-18.01-2.96.54-5.91-.54-11.82-3.49-16.93-3.22-5.11-7.79-9.14-13.17-11.56,2.42-5.64,6.45-9.41,12.63-11.83Z"/>
  <path class="cls-1" d="M507.99,179.68v-5.91c0-6.45,2.15-11.82,6.99-16.39,4.57-4.3,9.94-6.72,16.39-6.72,5.91,0,11.29,2.42,16.12,6.72,4.57,4.57,6.72,9.94,6.72,16.39v5.91h57.24c5.64.27,10.48,2.42,15.05,6.72,4.3,4.03,6.18,9.14,6.18,14.51,0,5.91-1.88,10.75-6.18,15.05-4.57,4.57-9.41,6.45-15.05,6.72h-57.24v5.91h57.24c5.64,0,10.48,2.15,14.51,5.91,4.03,4.03,6.18,9.14,6.18,14.78s-2.15,10.75-6.18,14.78c-4.03,3.76-8.87,5.91-14.51,5.91h-57.24v22.31c25.53,8.06,48.37,20.96,68.53,38.43,4.84,2.96,8.06,7.52,9.4,13.17,1.08,5.64.27,11.02-3.22,15.86-2.96,5.11-7.52,8.06-13.17,9.4-5.91,1.35-11.02.27-15.86-2.69-15.32-11.02-31.44-19.89-48.37-26.61-8.87,20.42-23.38,35.2-43.81,43.81-11.56,5.11-23.65,6.99-36.28,5.64-12.63-1.07-24.19-5.64-34.67-12.63-8.6-5.64-15.32-13.44-19.08-23.11-4.3-9.67-5.38-19.62-3.49-29.83,1.88-10.48,6.45-19.62,13.71-27.14,6.99-7.79,15.59-12.36,25.8-14.78,18.27-4.57,36.01-5.11,54.29-1.34v-10.48h-90.83c-5.64,0-10.21-2.15-14.51-5.91-4.3-4.03-6.18-9.14-6.18-14.78s1.88-10.75,6.18-14.78c4.3-3.76,8.87-5.91,14.51-5.91h90.83v-5.91h-84.39c-5.64-.27-10.75-2.15-15.05-6.72-4.03-4.3-6.18-9.14-6.18-15.05,0-5.38,2.15-10.48,6.18-14.51,4.3-4.3,9.4-6.45,15.05-6.72h84.39ZM493.48,342c3.76-.81,6.72-2.42,9.41-5.37s4.3-5.91,4.57-9.68c-12.9-2.69-24.99-4.03-36.28-4.03-2.42.27-4.57,1.34-6.45,3.23-1.61,1.88-2.42,4.03-2.15,6.45-.27,2.42.54,4.84,2.15,6.72,1.88,1.88,3.76,2.96,6.18,3.23,8.06.81,15.59.81,22.57-.54Z"/>
  <path class="cls-1" d="M705.8,251.44c-6.18.27-11.02-1.88-15.32-6.45-4.3-4.03-6.45-9.14-6.18-15.05-.27-6.18,1.88-11.02,6.18-15.59,4.3-4.3,9.14-6.18,15.32-6.18h124.43c9.14,0,15.59,4.03,19.62,12.63,3.49,8.87,2.15,16.66-4.3,23.11l-35.47,34.13c5.91,0,11.29,2.15,15.32,6.72,4.03,4.3,5.91,9.67,5.64,15.59v26.07c-.27,2.69.27,5.11,2.15,6.99,1.61,1.88,3.76,2.96,6.45,3.23,12.9,1.34,24.99.54,36.55-2.69,8.6-2.69,15.59-.81,21.77,5.37,6.18,5.91,8.06,13.17,5.38,21.5-2.15,8.06-7.79,13.17-16.39,15.05-23.38,4.84-47.3,4.57-71.22-1.07-8.33-2.42-15.32-7.26-20.42-14.24-5.64-6.99-7.79-15.05-7.52-23.65v-12.9c.27-3.76-1.08-6.99-4.03-9.4-2.96-2.42-5.91-2.96-9.94-1.88l-73.1,70.68c-4.3,4.57-9.94,6.45-16.39,6.18-6.72-.27-11.82-2.42-15.86-7.26-4.03-4.57-5.91-10.21-5.64-16.4.27-6.45,2.69-11.55,7.26-15.85l105.35-98.63h-69.6ZM843.4,161.14c5.64.81,10.48,3.49,14.24,7.52,3.76,4.3,5.64,9.14,5.91,14.78.27,5.64-1.61,10.75-5.11,15.32-3.49,4.3-8.33,7.26-13.71,8.33-4.57-2.96-9.67-4.3-14.51-4.3h-19.62l-80.09-8.87c-6.18-.81-10.75-3.76-14.24-8.33-3.49-4.57-5.11-9.68-4.3-15.86.81-5.91,3.49-10.75,8.33-14.51,4.3-3.49,9.67-5.11,15.59-4.57l107.5,10.48Z"/>
</svg>