<?xml version="1.0" encoding="UTF-8"?>
<svg xmlns="http://www.w3.org/2000/svg" viewBox="0 0 1100.95 664.38">
  <defs>
    <style>
      .cls-1 {
        fill: #ff7bac;
      }

      .cls-2 {
        fill: #fff;
      }
    </style>
  </defs>
  <g id="_レイヤー_1のコピー" data-name="レイヤー_1のコピー">
    <path class="cls-1" d="M1026.31,340.77c-13.81-13.63-30.91-20.83-49.49-20.83-1.41,0-2.82.04-4.24.13-.12-.53-.25-1.05-.39-1.58l1.41-1.35c.23-.22.46-.45.69-.67,15.11-15.11,22.23-34.63,20.62-54.87,8.58-13.1,12.71-27.97,11.97-43.34-.8-16.93-7.11-32.61-18.23-45.32-.35-.4-.71-.8-1.08-1.19-11.74-12.58-26.86-20.5-43.72-22.91-.74-.11-1.48-.19-2.22-.27l-107.5-10.48c-.11-.01-.21-.02-.32-.03-2.24-.2-4.51-.31-6.74-.31h0c-16.42,0-31.78,5.36-44.47,15.51-12.41,9.78-20.89,22.63-24.88,37.55-1.16-1.26-2.36-2.5-3.62-3.69-13.18-12.38-29.38-19.36-46.87-20.19-.79-.04-1.59-.06-2.39-.06h-21.9c-2.03-2.66-4.27-5.22-6.7-7.66-.69-.69-1.41-1.37-2.14-2.02-14.24-12.66-31.3-19.35-49.35-19.35-19.03,0-36.55,7.02-50.66,20.31-.02.02-.04.04-.06.06-2.89,2.73-5.51,5.62-7.86,8.65h-49.18c-.8,0-1.59.02-2.39.06-18.35.88-34.96,8.24-48.02,21.31-1.35,1.35-2.62,2.75-3.84,4.18l-47.88-24.98c-.54-.28-1.08-.55-1.63-.81-9.89-4.71-20.34-7.1-31.06-7.1h0c-7.73,0-15.37,1.26-22.75,3.75-11.23-12.95-26.57-21.25-43.97-23.62-.1-.01-.2-.03-.3-.04-3.29-.43-6.59-.65-9.83-.65h0c-14.78,0-28.66,4.37-41.26,12.99-.84.57-1.66,1.17-2.46,1.8-7.98,6.21-14.47,13.84-19.19,22.44-15.02,1.76-29.15,8.42-40.63,19.18-4.69-.72-9.5-1.1-14.39-1.1-51.84,0-94.01,42.17-94.01,94.01,0,46.38,33.77,85.03,78.01,92.64,3.29,15.72,11.39,29.36,23.54,39.32,13.3,11.36,29.45,17.36,46.81,17.36,1.73,0,3.49-.06,5.25-.18,2.41-.13,4.78-.38,7.12-.74.32.32.63.65.95.97,13.97,13.97,30.24,24.34,48.37,30.81,13.63,4.87,28.11,7.34,43.05,7.34,3.72,0,7.53-.15,11.35-.46,22.64-.89,44.1-9.07,62.18-23.72.58-.47,1.14-.95,1.7-1.44,4.36.99,8.86,1.59,13.46,1.8.03,0,.06,0,.09,0,1.1.05,2.22.07,3.31.07,15.95,0,30.71-5.11,43.05-14.82,6.01,6.94,13.03,13.1,20.96,18.32,17.94,11.93,37.27,18.89,57.48,20.7,4.2.43,8.44.65,12.61.65,16.63,0,32.86-3.41,48.25-10.15,14.74-6.26,27.85-14.82,39.05-25.41,1.39.94,2.76,1.9,4.13,2.89,1.02.73,2.06,1.43,3.13,2.08,11.5,7.03,23.96,10.59,37.02,10.59,5.31,0,10.69-.61,16-1.82.16-.04.32-.07.48-.11,1.56-.37,3.09-.81,4.61-1.27,9.41,10.41,25.4,22.01,50.36,23.01,1.07.04,2.14.07,3.2.07,19.44,0,37.33-7.39,50.55-20.84l23.59-22.81c11.13,12.82,25.56,22.04,42.14,26.85.82.24,1.64.45,2.46.65,16.37,3.86,33.05,5.82,49.58,5.82,14.44,0,28.99-1.5,43.25-4.45.18-.04.37-.08.55-.12,26.44-5.78,46.42-24.33,53.68-49.75,7.9-25.94,1.08-52.5-18.37-71.38ZM143.39,288.29c0-21.19,15.06-38.94,35.04-43.09-.04,1.04-.08,2.07-.08,3.12,0,19.21,7.11,36.7,20.59,50.68-3.93,6.71-8.14,13.26-12.63,19.68-3.3,3.94-6.1,8.15-8.43,12.57-19.7-4.37-34.48-21.97-34.48-42.96Z"/>
  </g>
  <g id="_レイヤー_1" data-name="レイヤー_1">
    <g>
      <path class="cls-2" d="M283.71,208.01c.81-5.91,3.76-11.02,8.6-14.78,5.11-3.49,10.21-4.84,16.39-4.03,5.91.81,11.02,3.76,14.51,8.87,3.49,5.11,4.84,10.75,4.03,16.66-.54,4.3-1.34,8.06-2.69,11.02h24.99c6.45-.27,11.83,2.15,16.66,6.72,4.57,4.3,6.99,9.94,6.99,15.86,0,6.45-2.42,11.83-6.99,16.39-4.84,4.84-10.21,6.99-16.66,6.72h-37.62c-5.91,18.28-12.9,35.74-21.77,53.21-11.56,9.67-18.01,22.04-19.62,37.09-3.49,6.18-6.99,11.82-11.02,18.01-4.03,4.84-9.14,7.52-15.59,7.79-6.72.54-12.09-1.34-16.93-5.64-4.84-3.76-6.99-9.41-7.26-15.86-.27-6.72,1.61-11.82,5.91-16.39,17.2-24.19,30.9-49.99,41.65-78.2h-15.86c-6.18.27-11.56-1.88-16.12-6.72-4.57-4.57-6.99-9.94-6.99-16.39,0-5.91,2.42-11.56,6.99-15.86,4.57-4.57,9.94-6.99,16.12-6.72h29.02l3.22-17.74ZM363.79,280.84c-.27-2.42-.27-5.11,0-7.52,6.72-3.76,11.29-9.14,13.44-16.12,6.18-2.15,12.36-1.34,18.01,2.15,5.64,3.49,8.6,8.87,9.14,15.32l5.64,61c15.32,8.06,29.56,18.27,42.46,31.17,4.03,3.76,5.91,8.87,5.91,14.78-.27,6.18-2.15,11.02-6.18,15.05-4.03,3.76-8.6,5.64-14.78,5.38-5.91-.27-11.02-2.15-14.78-6.18-4.57-5.38-9.94-9.95-15.59-13.98-2.69,12.36-8.87,22.31-18.54,30.91-9.94,8.06-21.23,12.36-33.59,12.63-11.82,1.07-23.38,0-34.67-4.03-11.29-4.03-21.23-10.48-29.83-19.08-6.72-6.72-11.29-14.51-13.44-23.65-2.42-9.14-1.88-18.27,1.07-27.14,2.96-9.14,8.33-16.39,15.59-22.57,6.99-5.91,15.59-9.41,24.99-10.75,16.39-1.88,33.32-.81,50.79,3.23l-5.64-40.58ZM330.47,359.04c-4.57.27-7.79,2.69-8.87,6.99-1.34,4.3,0,8.06,3.76,10.75,7.26,4.84,14.78,6.72,22.84,5.11,5.11-.54,9.14-2.69,13.17-6.18,3.76-3.49,6.18-7.26,7.79-12.36-12.36-4.03-24.99-5.11-38.7-4.3ZM374.54,210.96c5.64-2.15,11.56-1.88,17.2.81l55.63,29.02c5.11,2.42,8.87,6.45,10.48,12.09,1.88,5.64,1.34,11.29-1.07,16.39-2.96,5.11-7.26,8.6-12.63,10.48-5.64,1.61-11.02,1.34-16.39-1.07l-19.89-10.48c-1.88-6.18-5.91-10.48-11.29-13.97-5.91-3.49-11.83-4.3-18.01-2.96.54-5.91-.54-11.82-3.49-16.93-3.22-5.11-7.79-9.14-13.17-11.56,2.42-5.64,6.45-9.41,12.63-11.83Z"/>
      <path class="cls-2" d="M601.38,216.88v-5.91c0-6.45,2.15-11.82,6.99-16.39,4.57-4.3,9.94-6.72,16.39-6.72,5.91,0,11.29,2.42,16.12,6.72,4.57,4.57,6.72,9.94,6.72,16.39v5.91h57.24c5.64.27,10.48,2.42,15.05,6.72,4.3,4.03,6.18,9.14,6.18,14.51,0,5.91-1.88,10.75-6.18,15.05-4.57,4.57-9.41,6.45-15.05,6.72h-57.24v5.91h57.24c5.64,0,10.48,2.15,14.51,5.91,4.03,4.03,6.18,9.14,6.18,14.78s-2.15,10.75-6.18,14.78c-4.03,3.76-8.87,5.91-14.51,5.91h-57.24v22.31c25.53,8.06,48.37,20.96,68.53,38.43,4.84,2.96,8.06,7.52,9.4,13.17,1.08,5.64.27,11.02-3.22,15.86-2.96,5.11-7.52,8.06-13.17,9.4-5.91,1.35-11.02.27-15.86-2.69-15.32-11.02-31.44-19.89-48.37-26.61-8.87,20.42-23.38,35.2-43.81,43.81-11.56,5.11-23.65,6.99-36.28,5.64-12.63-1.07-24.19-5.64-34.67-12.63-8.6-5.64-15.32-13.44-19.08-23.11-4.3-9.67-5.38-19.62-3.49-29.83,1.88-10.48,6.45-19.62,13.71-27.14,6.99-7.79,15.59-12.36,25.8-14.78,18.27-4.57,36.01-5.11,54.29-1.34v-10.48h-90.83c-5.64,0-10.21-2.15-14.51-5.91-4.3-4.03-6.18-9.14-6.18-14.78s1.88-10.75,6.18-14.78c4.3-3.76,8.87-5.91,14.51-5.91h90.83v-5.91h-84.39c-5.64-.27-10.75-2.15-15.05-6.72-4.03-4.3-6.18-9.14-6.18-15.05,0-5.38,2.15-10.48,6.18-14.51,4.3-4.3,9.4-6.45,15.05-6.72h84.39ZM586.87,379.2c3.76-.81,6.72-2.42,9.41-5.37s4.3-5.91,4.57-9.68c-12.9-2.69-24.99-4.03-36.28-4.03-2.42.27-4.57,1.34-6.45,3.23-1.61,1.88-2.42,4.03-2.15,6.45-.27,2.42.54,4.84,2.15,6.72,1.88,1.88,3.76,2.96,6.18,3.23,8.06.81,15.59.81,22.57-.54Z"/>
      <path class="cls-2" d="M799.19,288.63c-6.18.27-11.02-1.88-15.32-6.45-4.3-4.03-6.45-9.14-6.18-15.05-.27-6.18,1.88-11.02,6.18-15.59,4.3-4.3,9.14-6.18,15.32-6.18h124.43c9.14,0,15.59,4.03,19.62,12.63,3.49,8.87,2.15,16.66-4.3,23.11l-35.47,34.13c5.91,0,11.29,2.15,15.32,6.72,4.03,4.3,5.91,9.67,5.64,15.59v26.07c-.27,2.69.27,5.11,2.15,6.99,1.61,1.88,3.76,2.96,6.45,3.23,12.9,1.34,24.99.54,36.55-2.69,8.6-2.69,15.59-.81,21.77,5.37,6.18,5.91,8.06,13.17,5.38,21.5-2.15,8.06-7.79,13.17-16.39,15.05-23.38,4.84-47.3,4.57-71.22-1.07-8.33-2.42-15.32-7.26-20.42-14.24-5.64-6.99-7.79-15.05-7.52-23.65v-12.9c.27-3.76-1.08-6.99-4.03-9.4-2.96-2.42-5.91-2.96-9.94-1.88l-73.1,70.68c-4.3,4.57-9.94,6.45-16.39,6.18-6.72-.27-11.82-2.42-15.86-7.26-4.03-4.57-5.91-10.21-5.64-16.4.27-6.45,2.69-11.55,7.26-15.85l105.35-98.63h-69.6ZM936.78,198.33c5.64.81,10.48,3.49,14.24,7.52,3.76,4.3,5.64,9.14,5.91,14.78.27,5.64-1.61,10.75-5.11,15.32-3.49,4.3-8.33,7.26-13.71,8.33-4.57-2.96-9.67-4.3-14.51-4.3h-19.62l-80.09-8.87c-6.18-.81-10.75-3.76-14.24-8.33-3.49-4.57-5.11-9.68-4.3-15.86.81-5.91,3.49-10.75,8.33-14.51,4.3-3.49,9.67-5.11,15.59-4.57l107.5,10.48Z"/>
    </g>
  </g>
</svg>