<?xml version="1.0" encoding="UTF-8"?>
<svg id="_レイヤー_1のコピー" data-name="レイヤー_1のコピー" xmlns="http://www.w3.org/2000/svg" viewBox="0 0 954.52 439.72">
  <defs>
    <style>
      .cls-1 {
        fill: #ff7bac;
      }
    </style>
  </defs>
  <path class="cls-1" d="M932.92,303.58c-13.81-13.63-30.91-20.83-49.49-20.83-1.41,0-2.82.04-4.24.13-.12-.53-.25-1.05-.39-1.58l1.41-1.35c.23-.22.46-.45.69-.67,15.11-15.11,22.23-34.63,20.62-54.87,8.58-13.1,12.71-27.97,11.97-43.34-.8-16.93-7.11-32.61-18.23-45.32-.35-.4-.71-.8-1.08-1.19-11.74-12.58-26.86-20.5-43.72-22.91-.74-.11-1.48-.19-2.22-.27l-107.5-10.48c-.11-.01-.21-.02-.32-.03-2.24-.2-4.51-.31-6.74-.31h0c-16.42,0-31.78,5.36-44.47,15.51-12.41,9.78-20.89,22.63-24.88,37.55-1.16-1.26-2.36-2.5-3.62-3.69-13.18-12.38-29.38-19.36-46.87-20.19-.79-.04-1.59-.06-2.39-.06h-21.9c-2.03-2.66-4.27-5.22-6.7-7.66-.69-.69-1.41-1.37-2.14-2.02-14.24-12.66-31.3-19.35-49.35-19.35-19.03,0-36.55,7.02-50.66,20.31-.02.02-.04.04-.06.06-2.89,2.73-5.51,5.62-7.86,8.65h-49.18c-.8,0-1.59.02-2.39.06-18.35.88-34.96,8.24-48.02,21.31-1.35,1.35-2.62,2.75-3.84,4.18l-47.88-24.98c-.54-.28-1.08-.55-1.63-.81-9.89-4.71-20.34-7.1-31.06-7.1h0c-7.73,0-15.37,1.26-22.75,3.75-11.23-12.95-26.57-21.25-43.97-23.62-.1-.01-.2-.03-.3-.04-3.29-.43-6.59-.65-9.83-.65h0c-14.78,0-28.66,4.37-41.26,12.99-.84.57-1.66,1.17-2.46,1.8-7.98,6.21-14.47,13.84-19.19,22.44-15.02,1.76-29.15,8.42-40.63,19.18-4.69-.72-9.5-1.1-14.39-1.1C42.17,157.09,0,199.26,0,251.1c0,46.38,33.77,85.03,78.01,92.64,3.29,15.72,11.39,29.36,23.54,39.32,13.3,11.36,29.45,17.36,46.81,17.36,1.73,0,3.49-.06,5.25-.18,2.41-.13,4.78-.38,7.12-.74.32.32.63.65.95.97,13.97,13.97,30.24,24.34,48.37,30.81,13.63,4.87,28.11,7.34,43.05,7.34,3.72,0,7.53-.15,11.35-.46,22.64-.89,44.1-9.07,62.18-23.72.58-.47,1.14-.95,1.7-1.44,4.36.99,8.86,1.59,13.46,1.8.03,0,.06,0,.09,0,1.1.05,2.22.07,3.31.07,15.95,0,30.71-5.11,43.05-14.82,6.01,6.94,13.03,13.1,20.96,18.32,17.94,11.93,37.27,18.89,57.48,20.7,4.2.43,8.44.65,12.61.65,16.63,0,32.86-3.41,48.25-10.15,14.74-6.26,27.85-14.82,39.05-25.41,1.39.94,2.76,1.9,4.13,2.89,1.02.73,2.06,1.43,3.13,2.08,11.5,7.03,23.96,10.59,37.02,10.59,5.31,0,10.69-.61,16-1.82.16-.04.32-.07.48-.11,1.56-.37,3.09-.81,4.61-1.27,9.41,10.41,25.4,22.01,50.36,23.01,1.07.04,2.14.07,3.2.07,19.44,0,37.33-7.39,50.55-20.84l23.59-22.81c11.13,12.82,25.56,22.04,42.14,26.85.82.24,1.64.45,2.46.65,16.37,3.86,33.05,5.82,49.58,5.82,14.44,0,28.99-1.5,43.25-4.45.18-.04.37-.08.55-.12,26.44-5.78,46.42-24.33,53.68-49.75,7.9-25.94,1.08-52.5-18.37-71.38ZM50,251.1c0-21.19,15.06-38.94,35.04-43.09-.04,1.04-.08,2.07-.08,3.12,0,19.21,7.11,36.7,20.59,50.68-3.93,6.71-8.14,13.26-12.63,19.68-3.3,3.94-6.1,8.15-8.43,12.57-19.7-4.37-34.48-21.97-34.48-42.96Z"/>
</svg>