<?xml version="1.0" encoding="UTF-8"?>
<svg id="_レイヤー_7" data-name="レイヤー_7" xmlns="http://www.w3.org/2000/svg" viewBox="0 0 1100.95 664.38">
  <defs>
    <style>
      .cls-1 {
        fill: #ff7bac;
      }
    </style>
  </defs>
  <path class="cls-1" d="M693.39,560.71c-8.87-8.75-19.52-14.04-31.14-15.55,7.76-10.18,11.48-22.25,10.87-34.74,5.94-9.68,8.77-20.55,8.24-31.79-.22-4.69-1-9.25-2.3-13.63,8.05-4.36,14.82-10.64,19.74-18.46,7.86-11.78,10.69-26.02,7.97-40.32-.11-.6-.24-1.19-.38-1.78-1.99-8.38-5.81-15.99-11.11-22.38,7.9-9.71,12.2-21.71,12.2-34.36,0-5.55-.83-10.98-2.43-16.14,1.85-5.55,2.8-11.45,2.8-17.61,0-14.5-5.57-27.93-15.69-38.06.14-.13.27-.26.41-.39,9.83-9.83,15.36-22.64,15.99-37.05.03-.58.04-1.16.04-1.74,0-15.08-5.75-28.87-16.2-38.95-1.24-1.23-2.49-2.43-3.77-3.62,5.35-4.3,9.88-9.6,13.45-15.76.55-.95,1.07-1.93,1.54-2.93,6.04-12.75,7.03-27.06,2.81-40.39-4.31-14.23-14.03-25.66-27.51-32.33l-11.33-5.91c1.05-5.2,1.61-10.58,1.61-16.08,0-44.53-36.22-80.75-80.75-80.75s-80.75,36.22-80.75,80.75c0,3.19.21,6.33.57,9.42-8.56,2.54-16.49,7.22-23.18,13.76-10.98,10.55-17.02,24.66-17.02,39.78,0,13.23,4.64,25.83,13.15,35.97-2.08,3.39-4.26,6.73-6.55,10.01-8.8,10.6-13.14,23.57-12.57,37.75,0,.02,0,.04,0,.07.68,16.2,7.54,30.38,19.38,40.09,1.83,1.56,3.74,2.99,5.71,4.29-1.39,1.15-2.74,2.36-4.03,3.65-10.34,10.34-16.03,23.98-16.03,38.41,0,3.58.33,7.09.99,10.51-3.35,7.13-5.11,15.01-5.11,23.25,0,14.16,5.22,27.29,14.75,37.31-.7,2.46-1.28,4.96-1.74,7.5-2.69,14.71-1,29.67,4.87,43.33,3.68,9.11,9.16,17.32,16.12,24.28-.42,1.78-.77,3.6-1.02,5.43-.01.07-.02.15-.03.22-.22,1.7-.37,3.39-.44,5.07-1.09.94-2.15,1.92-3.18,2.95-.29.29-.57.58-.84.87-12.6,13.39-15.31,27.88-15.2,38.24-.21,14.77,5.45,28.47,16.06,38.86.57.58,1.15,1.15,1.74,1.7l-15.07,14.11s-.05.05-.08.08c-10.88,10.24-16.97,23.54-17.61,38.46h0c-.63,14.48,4.18,28.39,13.54,39.21,7.08,8.32,19.65,18.18,39.83,18.99.81.03,1.63.05,2.43.05,14.93,0,28.68-5.68,38.87-16.02l12.69-12.27c7.82,7.66,17.38,13.25,28.15,16.37.65.19,1.31.36,1.97.52,11.81,2.78,23.84,4.2,35.77,4.2,10.42,0,20.93-1.08,31.22-3.21.15-.03.29-.06.44-.09,20.31-4.44,35.67-18.71,41.26-38.27,6.06-19.95.81-40.37-14.14-54.9ZM588.46,40c21.68,0,39.46,17.02,40.68,38.41-4.48-1.16-9.06-1.77-13.72-1.77s-9.62.64-14.29,1.9c-8.39-8.56-19.32-14.06-31.58-15.73-.08-.01-.15-.02-.23-.03-2.51-.33-5.04-.49-7.52-.49-3.44,0-6.81.31-10.11.92,6.57-13.72,20.58-23.22,36.78-23.22Z"/>
</svg>