<?xml version="1.0" encoding="UTF-8"?>
<svg xmlns="http://www.w3.org/2000/svg" viewBox="0 0 1100.95 664.38">
  <defs>
    <style>
      .cls-1 {
        fill: #ff7bac;
      }

      .cls-2 {
        fill: #fff;
      }
    </style>
  </defs>
  <g id="_レイヤー_7" data-name="レイヤー_7">
    <path class="cls-1" d="M693.39,560.71c-8.87-8.75-19.52-14.04-31.14-15.55,7.76-10.18,11.48-22.25,10.87-34.74,5.94-9.68,8.77-20.55,8.24-31.79-.22-4.69-1-9.25-2.3-13.63,8.05-4.36,14.82-10.64,19.74-18.46,7.86-11.78,10.69-26.02,7.97-40.32-.11-.6-.24-1.19-.38-1.78-1.99-8.38-5.81-15.99-11.11-22.38,7.9-9.71,12.2-21.71,12.2-34.36,0-5.55-.83-10.98-2.43-16.14,1.85-5.55,2.8-11.45,2.8-17.61,0-14.5-5.57-27.93-15.69-38.06.14-.13.27-.26.41-.39,9.83-9.83,15.36-22.64,15.99-37.05.03-.58.04-1.16.04-1.74,0-15.08-5.75-28.87-16.2-38.95-1.24-1.23-2.49-2.43-3.77-3.62,5.35-4.3,9.88-9.6,13.45-15.76.55-.95,1.07-1.93,1.54-2.93,6.04-12.75,7.03-27.06,2.81-40.39-4.31-14.23-14.03-25.66-27.51-32.33l-11.33-5.91c1.05-5.2,1.61-10.58,1.61-16.08,0-44.53-36.22-80.75-80.75-80.75s-80.75,36.22-80.75,80.75c0,3.19.21,6.33.57,9.42-8.56,2.54-16.49,7.22-23.18,13.76-10.98,10.55-17.02,24.66-17.02,39.78,0,13.23,4.64,25.83,13.15,35.97-2.08,3.39-4.26,6.73-6.55,10.01-8.8,10.6-13.14,23.57-12.57,37.75,0,.02,0,.04,0,.07.68,16.2,7.54,30.38,19.38,40.09,1.83,1.56,3.74,2.99,5.71,4.29-1.39,1.15-2.74,2.36-4.03,3.65-10.34,10.34-16.03,23.98-16.03,38.41,0,3.58.33,7.09.99,10.51-3.35,7.13-5.11,15.01-5.11,23.25,0,14.16,5.22,27.29,14.75,37.31-.7,2.46-1.28,4.96-1.74,7.5-2.69,14.71-1,29.67,4.87,43.33,3.68,9.11,9.16,17.32,16.12,24.28-.42,1.78-.77,3.6-1.02,5.43-.01.07-.02.15-.03.22-.22,1.7-.37,3.39-.44,5.07-1.09.94-2.15,1.92-3.18,2.95-.29.29-.57.58-.84.87-12.6,13.39-15.31,27.88-15.2,38.24-.21,14.77,5.45,28.47,16.06,38.86.57.58,1.15,1.15,1.74,1.7l-15.07,14.11s-.05.05-.08.08c-10.88,10.24-16.97,23.54-17.61,38.46h0c-.63,14.48,4.18,28.39,13.54,39.21,7.08,8.32,19.65,18.18,39.83,18.99.81.03,1.63.05,2.43.05,14.93,0,28.68-5.68,38.87-16.02l12.69-12.27c7.82,7.66,17.38,13.25,28.15,16.37.65.19,1.31.36,1.97.52,11.81,2.78,23.84,4.2,35.77,4.2,10.42,0,20.93-1.08,31.22-3.21.15-.03.29-.06.44-.09,20.31-4.44,35.67-18.71,41.26-38.27,6.06-19.95.81-40.37-14.14-54.9ZM588.46,40c21.68,0,39.46,17.02,40.68,38.41-4.48-1.16-9.06-1.77-13.72-1.77s-9.62.64-14.29,1.9c-8.39-8.56-19.32-14.06-31.58-15.73-.08-.01-.15-.02-.23-.03-2.51-.33-5.04-.49-7.52-.49-3.44,0-6.81.31-10.11.92,6.57-13.72,20.58-23.22,36.78-23.22Z"/>
  </g>
  <g id="_レイヤー_7のコピー" data-name="レイヤー_7のコピー">
    <g>
      <path class="cls-2" d="M545.21,103.94c.59-4.3,2.74-8.02,6.26-10.76,3.72-2.54,7.44-3.52,11.94-2.94,4.3.59,8.02,2.74,10.57,6.46,2.54,3.72,3.52,7.83,2.94,12.13-.39,3.13-.98,5.87-1.96,8.02h18.2c4.7-.2,8.61,1.57,12.13,4.89,3.33,3.13,5.09,7.24,5.09,11.55,0,4.7-1.76,8.61-5.09,11.94-3.52,3.52-7.44,5.09-12.13,4.89h-27.4c-4.3,13.31-9.39,26.03-15.85,38.75-8.41,7.05-13.11,16.05-14.29,27.01-2.54,4.5-5.09,8.61-8.02,13.11-2.94,3.52-6.65,5.48-11.35,5.68-4.89.39-8.81-.98-12.33-4.11-3.52-2.74-5.09-6.85-5.28-11.55-.2-4.89,1.17-8.61,4.31-11.94,12.52-17.61,22.5-36.4,30.33-56.95h-11.55c-4.5.19-8.41-1.37-11.74-4.89-3.33-3.33-5.09-7.24-5.09-11.94,0-4.31,1.76-8.41,5.09-11.55,3.33-3.33,7.24-5.09,11.74-4.89h21.14l2.35-12.92ZM603.53,156.98c-.2-1.76-.2-3.72,0-5.48,4.89-2.74,8.22-6.65,9.79-11.74,4.5-1.57,9-.98,13.11,1.57s6.26,6.46,6.65,11.15l4.11,44.42c11.16,5.87,21.53,13.31,30.92,22.7,2.94,2.74,4.3,6.46,4.3,10.76-.2,4.5-1.57,8.02-4.5,10.96-2.94,2.74-6.26,4.11-10.76,3.91-4.31-.2-8.02-1.57-10.76-4.5-3.33-3.91-7.24-7.24-11.35-10.18-1.96,9-6.46,16.24-13.5,22.5-7.24,5.87-15.46,9-24.46,9.2-8.61.78-17.03,0-25.24-2.94-8.22-2.94-15.46-7.63-21.72-13.89-4.89-4.89-8.22-10.57-9.78-17.22-1.76-6.65-1.37-13.31.78-19.77,2.15-6.65,6.07-11.94,11.35-16.44,5.09-4.3,11.35-6.85,18.2-7.83,11.94-1.37,24.27-.59,36.99,2.35l-4.11-29.55ZM579.27,213.93c-3.33.2-5.68,1.96-6.46,5.09-.98,3.13,0,5.87,2.74,7.83,5.28,3.52,10.76,4.89,16.63,3.72,3.72-.39,6.65-1.96,9.59-4.5,2.74-2.54,4.5-5.28,5.68-9-9-2.94-18.2-3.72-28.18-3.13ZM611.36,106.1c4.11-1.57,8.42-1.37,12.52.59l40.51,21.14c3.72,1.76,6.46,4.7,7.63,8.81,1.37,4.11.98,8.22-.78,11.94-2.15,3.72-5.28,6.26-9.2,7.63-4.11,1.17-8.02.98-11.94-.78l-14.48-7.63c-1.37-4.5-4.3-7.63-8.22-10.18-4.31-2.54-8.61-3.13-13.11-2.15.39-4.3-.39-8.61-2.54-12.33-2.35-3.72-5.68-6.65-9.59-8.41,1.76-4.11,4.7-6.85,9.2-8.61Z"/>
      <path class="cls-2" d="M580.83,295.51v-4.3c0-4.7,1.57-8.61,5.09-11.94,3.33-3.13,7.24-4.89,11.94-4.89,4.3,0,8.22,1.76,11.74,4.89,3.33,3.33,4.89,7.24,4.89,11.94v4.3h41.68c4.11.2,7.63,1.76,10.96,4.89,3.13,2.94,4.5,6.65,4.5,10.57,0,4.31-1.37,7.83-4.5,10.96-3.33,3.33-6.85,4.7-10.96,4.89h-41.68v4.31h41.68c4.11,0,7.63,1.57,10.57,4.3,2.94,2.94,4.5,6.65,4.5,10.76s-1.57,7.83-4.5,10.76c-2.94,2.74-6.46,4.3-10.57,4.3h-41.68v16.24c18.59,5.87,35.23,15.26,49.9,27.98,3.52,2.15,5.87,5.48,6.85,9.59.78,4.11.2,8.02-2.35,11.55-2.15,3.72-5.48,5.87-9.59,6.85-4.31.98-8.02.2-11.55-1.96-11.16-8.02-22.9-14.48-35.23-19.37-6.46,14.87-17.03,25.64-31.9,31.9-8.42,3.72-17.22,5.09-26.42,4.11-9.2-.78-17.61-4.11-25.24-9.2-6.26-4.11-11.16-9.78-13.9-16.83-3.13-7.04-3.91-14.29-2.54-21.72,1.37-7.63,4.7-14.29,9.98-19.76,5.09-5.68,11.35-9,18.79-10.76,13.31-3.33,26.22-3.72,39.53-.98v-7.63h-66.15c-4.11,0-7.44-1.57-10.57-4.3-3.13-2.94-4.5-6.65-4.5-10.76s1.37-7.83,4.5-10.76c3.13-2.74,6.46-4.3,10.57-4.3h66.15v-4.31h-61.45c-4.11-.2-7.83-1.57-10.96-4.89-2.94-3.13-4.5-6.65-4.5-10.96,0-3.91,1.57-7.63,4.5-10.57,3.13-3.13,6.85-4.7,10.96-4.89h61.45ZM570.26,413.71c2.74-.59,4.89-1.76,6.85-3.91,1.96-2.15,3.13-4.3,3.33-7.05-9.39-1.96-18.2-2.94-26.42-2.94-1.76.2-3.33.98-4.7,2.35-1.17,1.37-1.76,2.94-1.57,4.7-.2,1.76.39,3.52,1.57,4.89,1.37,1.37,2.74,2.15,4.5,2.35,5.87.59,11.35.59,16.44-.39Z"/>
      <path class="cls-2" d="M529.17,534.33c-4.5.2-8.02-1.37-11.15-4.7-3.13-2.94-4.7-6.65-4.5-10.96-.19-4.5,1.37-8.02,4.5-11.35,3.13-3.13,6.65-4.5,11.15-4.5h90.61c6.65,0,11.35,2.94,14.29,9.2,2.54,6.46,1.57,12.13-3.13,16.83l-25.83,24.85c4.31,0,8.22,1.57,11.16,4.89,2.94,3.13,4.3,7.04,4.11,11.35v18.98c-.2,1.96.19,3.72,1.57,5.09,1.17,1.37,2.74,2.15,4.7,2.35,9.39.98,18.2.39,26.61-1.96,6.26-1.96,11.35-.59,15.85,3.91,4.5,4.31,5.87,9.59,3.92,15.66-1.57,5.87-5.68,9.59-11.94,10.96-17.03,3.52-34.44,3.33-51.86-.78-6.07-1.76-11.16-5.28-14.87-10.37-4.11-5.09-5.68-10.96-5.48-17.22v-9.39c.2-2.74-.78-5.09-2.94-6.85s-4.31-2.15-7.24-1.37l-53.23,51.47c-3.13,3.33-7.24,4.7-11.94,4.5-4.89-.2-8.61-1.76-11.55-5.28-2.94-3.33-4.3-7.44-4.11-11.94.2-4.7,1.96-8.42,5.28-11.55l76.71-71.82h-50.69ZM629.36,468.57c4.11.59,7.63,2.54,10.37,5.48,2.74,3.13,4.11,6.65,4.3,10.76.2,4.11-1.17,7.83-3.72,11.16-2.54,3.13-6.07,5.28-9.98,6.07-3.33-2.15-7.05-3.13-10.57-3.13h-14.29l-58.32-6.46c-4.5-.59-7.83-2.74-10.37-6.07-2.54-3.33-3.72-7.05-3.13-11.55.59-4.3,2.54-7.83,6.07-10.57,3.13-2.54,7.05-3.72,11.35-3.33l78.28,7.63Z"/>
    </g>
  </g>
</svg>